<svg width="800" height="300" xmlns="http://www.w3.org/2000/svg">
    <defs>
        <radialGradient id="bgGrad" cx="50%" cy="50%" r="50%" fx="50%" fy="50%">
            <stop offset="0%" style="stop-color:#1e1b4b;stop-opacity:1" />
            <stop offset="100%" style="stop-color:#020617;stop-opacity:1" />
        </radialGradient>
        <filter id="glow">
            <feGaussianBlur stdDeviation="3" result="coloredBlur"/>
            <feMerge>
                <feMergeNode in="coloredBlur"/>
                <feMergeNode in="SourceGraphic"/>
            </feMerge>
        </filter>
        <linearGradient id="lineGrad" x1="0%" y1="0%" x2="100%" y2="0%">
            <stop offset="0%" style="stop-color:#ec4899;stop-opacity:0" />
            <stop offset="50%" style="stop-color:#8b5cf6;stop-opacity:1" />
            <stop offset="100%" style="stop-color:#3b82f6;stop-opacity:0" />
        </linearGradient>
    </defs>
    
    <!-- Deep Space Background -->
    <rect width="100%" height="100%" fill="url(#bgGrad)" />
    
    <!-- Subtle Grid -->
    <defs>
        <pattern id="grid" width="50" height="50" patternUnits="userSpaceOnUse">
            <path d="M 50 0 L 0 0 0 50" fill="none" stroke="#6366f1" stroke-width="0.5" opacity="0.1"/>
        </pattern>
    </defs>
    <rect width="100%" height="100%" fill="url(#grid)" />

    <!-- Lorenz Attractor Path -->
    <path d="M 401.35 0.0 L 401.257 0.00015120000000479195 L 401.21068 0.00041324975998691116 L 401.2033941683236 0.0007695732211914219 L 401.2295980547461 0.0012193162194193974 L 401.2854110018568 0.0017729841304117144 L 401.3682834223854 0.0024503799281774263 L 401.47674559387036 0.0032800416463487636 L 401.61022002009406 0.004299735271047211 L 401.76888358316984 0.005557779922582995 L 401.9535689409298 0.007115123952559088 L 402.1656971275708 0.0090481878408184 L 402.4072352584389 0.011452563741215727 L 402.68067475141686 0.014447725634738617 L 402.9890266573092 0.018182967300390374 L 403.33583161689944 0.02284485431883354 L 403.7251826924531 0.028666556565070778 L 404.16175990225423 0.03593952432356673 L 404.65087575364674 0.04502808977170503 L 405.1985314501351 0.05638772238506817 L 405.81148376201634 0.07058784924026895 L 406.49732281318626 0.08834037822279583 L 407.26456126027864 0.11053534477505877 L 408.1227355314878 0.13828545450272145 L 409.0825199550942 0.17298173116037674 L 410.1558547420916 0.21636302231573268 L 411.356088889636 0.2706027876225505 L 412.69813913374924 0.33841742622843185 L 414.19866608614524 0.42320142489293744 L 415.87626861846167 0.5291958670136978 L 417.7516973739293 0.6616983804830738 L 419.84808794303785 0.8273244688060117 L 422.1912136670734 1.0343324161223961 L 424.809757134458 1.2930266289805274 L 427.73559807416643 1.616257406968515 L 431.0041133403651 2.020038718184651 L 434.65448176431374 2.5243095277061514 L 438.7299824702561 3.153868408380248 L 443.27826933309876 3.939515183309368 L 448.3515959563639 4.919436526856515 L 454.00695402320605 6.140873609845045 L 460.3060720256375 7.6621070725972515 L 467.31519982664315 9.554784746182634 L 475.1045755840657 11.906595815366558 L 483.7474333627428 14.824254307402782 L 493.31836035564123 18.43668440598441 L 503.8907505384879 22.89818550142445 L 515.5330266709636 28.391176848384504 L 528.3032177471208 35.127857069415114 L 542.2413930930093 43.349739053770946 L 557.3593865142611 53.323521574773906 L 573.6272303938155 65.33114922667568 L 590.9558221088728 79.65127031271982 L 609.1756595394613 96.52882746431553 L 628.0121430821944 116.12960412615314 L 647.0591093845558 138.4778636030805 L 665.7540772715281 163.37867382464435 L 683.3611583691077 190.33304665379086 L 698.9703958475991 218.4639153307353 L 711.5245363834658 246.4826005882129 L 719.8842149407978 272.73372767594327 L 722.9379283600381 295.3526304488431 L 719.7520713789805 312.54337764709595 L 709.7392216294209 322.93557895593784 L 692.805025879805 325.92037400018927 L 669.4255815029314 321.83678936610795 L 640.6184244489551 311.91481993262624 L 607.8027013508287 297.98017147950395 L 572.58466316454 282.0334810333378 L 536.531101351478 265.86260093797557 L 500.9907750224186 250.80416962636917 L 466.99647204034056 237.68086552821507 L 435.2468087336595 226.8673419049798 L 406.1445498921551 218.413471458145 L 379.86247839101856 212.16853635187397 L 356.413662190013 207.878050104112 L 335.71259410193085 205.24733045089118 L 317.62191953518794 203.97750722434046 L 301.98459561857084 203.78287381026234 L 288.64371507742146 204.39750051039027 L 277.452892274587 205.57674228805024 L 268.279931337871 207.09709367572657 L 261.00603005944316 208.7562016434983 L 255.52228996754727 210.3737407289475 L 251.72489963338842 211.79315865404436 L 249.51004345035736 212.88389725449497 L 248.76933571362622 213.5435047339697 L 249.3863584090864 213.69903428755873 L 251.23466835147366 213.30723660553315 L 254.1774275036621 212.3532618928857 L 258.0686061607084 210.84784313075977 L 262.75552886261335 208.82318220412094 L 268.0823971442407 206.32795405373804 L 273.89434706131806 203.42194699455143 L 280.0415887272285 200.17085946471707 L 286.383224088512 196.64168865418577 L 292.79043216977163 192.8990058955818 L 299.14882685826234 189.00225479646588 L 305.3599096424273 185.00406380760808 L 311.34164149928336 180.94945684436868 L 317.02823396477584 176.87578199452167 L 322.3693058821144 172.81315641172824 L 327.32857153908583 168.7852355251669 L 331.88222344676507 164.81014461145622 L 336.0171557709425 160.9014494275096 L 339.7291490065813 157.06908157767947 L 343.02110825460693 153.3201683692958 L 345.90142021043437 149.65974368565935 L 348.3824699866451 146.09133549202727 L 350.4793392306651 142.61743782378835 L 352.2086918632242 139.2398818797824 L 353.5878428251403 135.9601236556665 L 354.6339978781935 132.7794657464775 L 355.363648069793 129.69922960046824 L 355.7921002704923 126.7208924061839 L 355.9331246365863 123.84620047218891 L 355.79870044723424 121.07726873807042 L 355.39884313063885 118.41667410837397 L 354.7414971350313 115.86754869555352 L 353.8324814064437 113.43367779464393 L 352.6754764614124 111.11960645244329 L 351.2720442964285 108.93075777729018 L 349.62167460591047 106.87356559090648 L 347.7218529673077 104.95562357421974 L 345.5681488005384 103.18585262240711 L 343.15432304241784 101.57468761110954 L 340.4724576312771 100.13428408463196 L 337.5131111173419 98.87874438914315 L 334.26550704905236 97.82436134616185 L 330.7177642806931 96.98987551919836 L 326.85718103906777 96.39673925678468 L 322.67058749261787 96.0693767443002 L 318.1447846656461 96.03542397140598 L 313.2670907558731 96.32592550033615 L 308.0260190802985 96.9754558831927 L 302.41211469849185 98.02212226262509 L 296.4189787686987 99.50739099555517 L 290.04451015877135 101.47566527395392 L 283.2923917192545 103.97352344026322 L 276.17384249606505 107.04851064806525 L 268.7096451380521 110.7473626465507 L 260.9324375268259 115.11353450955085 L 252.88922659521037 120.18391607447046 L 244.64403778794934 125.98464915909852 L 236.28055367497964 132.5260308383194 L 227.90451956705445 139.79660435475387 L 219.64560555897586 147.7567141389452 L 211.65832141831734 156.33203523880195 L 204.1214986670778 165.40786533173434 L 197.23580741893028 174.82524921827877 L 191.21879680039973 184.3802187834537 L 186.2970742336401 193.82747225656152 L 182.6955026501373 202.8895674840179 L 180.62370793098233 211.27207172952603 L 180.26072511576234 218.68408468682622 L 181.73919114331358 224.86226333472405 L 185.13097918559416 229.59522609032848 L 190.43639861689036 232.7444182808846 L 197.57890858437017 234.25758096877047 L 206.40665163420977 234.17206798854784 L 216.7010860156923 232.60722466006575 L 228.19180466527618 229.7473331689032 L 240.57558219667848 225.81852729592055 L 253.53706870804146 221.06399872337107 L 266.7684969630241 215.72155944237267 L 279.98624917443357 210.00643078058346 L 292.9429493275876 204.10052023982098 L 305.4346511008489 198.1479635938067 L 317.3034586004931 192.25570482869477 L 328.4364214067168 186.49745743683627 L 338.7617653287454 180.91943461676306 L 348.24350903945367 175.54656140595904 L 356.8753597381355 170.38830412312228 L 364.67456060712135 165.44364462108297 L 371.67613981347154 160.70502691097846 L 377.9278200170153 156.16129923220717 L 383.48570229204944 151.79978067940516 L 388.4107387077943 147.60762302205188 L 392.7659462080494 143.57263963487094 L 396.61428138037417 139.6837534840222 L 400.0170822643891 135.9311877451023 L 403.03298229593753 132.30649353211845 L 405.7172075430728 128.80248332009825 L 408.12117799292673 125.41311748275774 L 410.2923445420924 122.1333751050771 L 412.2742042017046 118.9591283504567 L 414.1064461386176 115.88703138260212 L 415.8251902037445 112.91442935332464 L 417.463287439723 110.03928954344946 L 419.05065872836764 107.26015478737725 L 420.61465331230715 104.57611835803414 L 422.180413510345 101.98681919321035 L 423.7712356552479 99.49245646097634 L 425.40892022527254 97.09382282281899 L 427.1141064172105 94.79235624786813 L 428.9065881077058 92.59021079055796 L 430.8056093463707 90.49034732509438 L 432.8301382800026 88.49664580751852 L 434.9991187684012 86.61404119214248 L 437.3316989501065 84.84868564641278 L 439.8474356661219 83.20814016349553 L 442.56647295021776 81.70159902891797 L 445.5096917273713 80.34015079989734 L 448.69882639118487 79.1370794173381 L 452.15654200257893 78.1082086634284 L 455.9064633940066 77.27229221887046 L 459.9731443887968 76.65144980528157 L 464.3819615564141 76.27164696611479 L 469.15891232296053 76.16321146833528 L 474.33029176007386 76.36137247571187 L 479.92221594779573 76.90679876619248 L 485.9599525031703 77.8460983858011 L 492.4670109049033 79.23222316106788 L 499.4639371133978 81.12469631034719 L 506.9667495928813 83.58954906805192 L 514.9849487196573 86.69881242630743 L 523.5190311208718 90.52936374955041 L 532.5574483232343 95.16087842451157 L 542.0729702572116 100.67259104686724 L 552.0184553458204 107.13854193883907 L 562.3220982660405 114.62099404110916 L 572.8823328171159 123.16178297084252 L 583.5627181777409 132.77154885577852 L 594.1873347424399 143.41713594413773 L 604.5374524750487 155.00796931683533 L 614.3504833975519 167.38292824824237 L 623.3224362758401 180.30006458764268 L 631.1151687921657 193.43228437253077 L 637.369564897076 206.37251128543 L 641.7252311457326 218.65146734774714 L 643.846326824168 229.76964443286806 L 643.4517538047459 239.24215505896194 L 640.3463540066043 246.6513258998915 L 634.448425166798 251.69820066413155 L 625.8083289090596 254.24211383416235 L 614.6137095920056 254.31859575781982 L 601.1789921365057 252.13044622838163 L 585.9199542177925 248.0136365109489 L 569.3173517479643 242.3862537947848 L 551.8757603227804 235.69241366668984 L 534.0842793527879 228.3526958563151 L 516.3845127302197 220.72888781922956 L 499.1489115349659 213.10565996704491 L 482.67003763918524 205.68734438330569 L 467.15932811210564 198.6054487248503 L 452.7528575655841 191.9319931665229 L 439.52136588891284 185.6945730883058 L 427.48217193464745 179.8904203310135 L 416.61121566658386 174.498061090644 L 406.8541199867539 169.48615553616025 L 398.13570350034007 164.8197002508944 L 390.36776099271776 160.4640530659916 L 383.4551682871518 156.38730964537672 L 377.30049501120305 152.5615178661368 L 371.80735895937966 148.96312598140287 L 366.8827597278762 145.5729625133314 L 362.43860909358835 142.3759586188035 L 358.392645337838 139.3607539487163 L 354.6688865469731 136.51927504044693 L 351.1977480331467 133.84633852862316 L 347.91592315017334 131.33930663333615 L 344.76610532417453 128.9978063493595 L 341.6966118074391 126.8235138966233 L 338.6609559628496 124.82000026897833 L 335.61740420707565 122.99263062851469 L 332.5285455376364 121.3485087538329 L 329.36089537263723 119.89645700196303 L 326.0845508523808 118.64702175822327 L 322.6729114661824 117.61249376421728 L 319.10247660269454 116.80693178358445 L 315.35273013677534 116.24617662040191 L 311.4061212332017 115.94784043968502 L 307.24814993653996 115.93125360253845 L 302.86756557567173 116.21734783406822 L 298.25668525142083 116.82845059170205 L 293.41183835295766 117.78796122259496 L 288.3339407518039 119.1198752984418 L 283.0291985641185 120.84812004842644 L 277.5099355928294 122.99566205231451 L 271.79553015196063 125.5833496731808 L 265.9134353316923 128.62845890037613 L 259.9002413835216 132.14292453409757 L 253.80271955236034 136.13126140823886 L 247.67876361166572 140.58821493105728 L 241.5981196193264 145.49622817672912 L 235.64276820364734 150.82287391437524 L 229.90680069532965 156.51847115857032 L 224.49561602911493 162.51417954600754 L 219.5242665465639 168.72092811208495 L 215.11480563450553 175.02956930587885 L 211.39254616119297 181.31263192641234 L 208.48123097221418 187.42795616696486 L 206.4972448431175 193.22431592305816 L 205.5431523322197 198.54887057807986 L 205.70100852402078 203.25596827745517 L 207.0260302277956 207.21650093173912 L 209.54129838226757 210.32676496063755 L 213.23415498708204 212.5156913029614 L 218.05483951666497 213.74942984589757 L 223.91768304342867 214.03261341258013 L 230.70487350195384 213.40612775602278 L 238.27247686454004 211.94176599464322 L 246.4581116741135 209.73461685054434 L 255.0894863405213 206.89431661970167 L 263.99295366191507 203.5363339738745 L 273.00131599158095 199.77427416806415 L 281.9602974815667 195.7138607627906 L 290.73333819244027 191.44887786610389 L 299.2046067743157 187.05902272044773 L 307.28033257525277 182.6093825728725 L 314.8887008795799 178.15112782136492 L 321.97863118676213 173.72299146527268 L 328.5177764053436 169.35315259507036 L 334.49005628999896 165.06122581365207 L 339.8929886703299 160.86015172897953 L 344.7350219439471 156.75786803557355 L 349.0330127453097 152.7587073216414 L 352.80994017385893 148.86451450471554 L 356.0929054442419 145.07550571025104 L 358.9114338104882 141.39090530130562 L 361.2960731612659 137.80940280086662 L 363.2772691581859 134.32947027379237 L 364.8844884114146 130.94957617584578 L 366.1455573108905 127.66832570678122 L 367.0861833784861 124.48455157508499 L 367.72962729534936 121.39737349941231 L 368.0964962830358 118.4062400633834 L 368.20463270041637 115.51096279328783 L 368.0690751648561 112.7117494916132 L 367.7020729559755 110.00924181458049 L 367.11313775303194 107.40456068713155 L 366.3091198032728 104.89936226454915 L 365.29429837932133 102.49590665178368 L 364.0704788544876 100.19714137510891 L 362.6370909258935 98.00680158074528 L 360.9912844834754 95.9295290423511 L 359.12802140740666 93.97101223559969 L 357.04016323543385 92.13814993042791 L 354.71855624044764 90.43924090566958 L 352.1521170690667 88.8842024439081 L 349.3279237918175 87.4848201371409 L 346.2313190880882 86.25503112084056 L 342.8460344229895 85.21124201269646 L 339.1543465606606 84.37268137001769 L 335.1372806914033 83.7617841387368 L 330.7748779133001 83.40460200841778 L 326.0465488683525 83.3312283767118 L 320.93154001477916 83.57621922191623 L 315.4095442754606 84.17898093758865 L 309.46149347207677 85.1840823741849 L 303.070575679159 86.64143022752447 L 296.22352576689326 88.60622391801434 L 288.91224088069544 91.13857802161095 L 281.1357727799056 94.30266777515297 L 272.9027434076049 98.16521830190061 L 264.23421541962915 102.79312551864305 L 255.16702123883024 108.24997432660217 L 245.7575071235004 114.59122069576438 L 236.08557683972893 121.85784760727017 L 226.2588175031528 130.06841540490598 L 216.41635540128905 139.20963327090442 L 206.73192558620536 149.22590539095518 L 197.4154599531361 160.0087618658822 L 188.71233476179282 171.387643417348 L 180.89932099791 183.1240827524215 L 174.27632095801098 194.9117460381981 L 169.15323440155953 206.38481914010708 L 165.83184743289067 217.13656891702198 L 164.58349502080296 226.74838506792958 L 165.62433278774293 234.82726197896795 L 169.09115148627603 241.0469547063193 L 175.02144314756424 245.18579008304357 L 183.34150960773619 247.15336517206805 L 193.865538591208 246.99986187015168 L 206.30679097816486 244.90538757492914 L 220.29973906029403 241.15155565136865 L 235.42983128082014 236.08174578895745 L 251.26620589114415 230.0586037724646 L 267.39252019491585 223.4267643108247 L 283.4320423187444 216.4860872996208 L 299.06482507692493 209.4771978164364 L 314.0365570514656 202.57811672246078 L 328.1600850532166 195.90900496651795 L 341.3113974117468 189.5415866385594 L 353.4220687496261 183.51028254193233 L 364.4699624458187 177.82297456725087 L 374.46957191233247 172.4702335307582 L 383.4629228176286 167.43256377601568 L 391.51155671404524 162.68568637456428 L 398.6898140029331 158.20412977005105 L 405.0794330583603 153.96348649437414 L 410.76536513502015 149.94169052219672 L 415.83264817197653 146.11962000369647 L 420.36416542560767 142.48126531873316 L 424.4391205262258 139.01363953188445 L 428.1320776894339 135.7065549748192 L 431.5124373036791 132.55234795895365 L 434.64423890005247 129.5456028718752 L 437.5862035356055 126.68290534080114 L 440.39194504249167 123.96263970762811 L 443.11029423497814 121.38483687174676 L 445.78569217737294 118.95107306022004 L 448.45861828491445 116.66441706605116 L 451.1660266735315 114.5294220462996 L 453.9417700907541 112.55215743247862 L 456.81699520838004 110.74027640309657 L 459.82049625561064 109.1031143631734 L 462.97901609931057 107.65181371804897 L 466.31748508506536 106.39946972259332 L 469.85918836552366 105.36129116273301 L 473.6258521746972 104.55476792229646 L 477.63763866976876 103.9998349384689 L 481.9130376778981 103.71901847926705 L 486.46864210477224 103.73754590975648 L 491.3187920838924 104.0833939906785 L 496.47507144712176 104.78724316922927 L 501.94563916412426 105.88229629118811 L 507.73437856607904 107.4039099174098 L 513.8398491626551 109.38897555448557 L 520.2540306331387 111.87497774460422 L 526.9608573230641 114.89864801960954 L 533.9345557373956 118.49413116206466 L 541.1378186642349 122.69058724313822 L 548.5198792049183 127.50917507049246 L 556.0145872143725 132.959406615665 L 563.5386395348214 139.0349345974373 L 570.9901721315738 145.70894211593844 L 578.247982068144 152.92944517127586 L 585.1717013769917 160.61498878362818 L 591.6032795776092 168.65139488815146 L 597.3701283233858 176.89036784315635 L 602.2902188614044 185.15082645077985 L 606.1792804715765 193.22374411605693 L 608.8600143463713 200.8809812090119 L 610.172919312359 207.88805880159362 L 609.9879576832357 214.02008836868265 L 608.2159372866645 219.07926279391404 L 604.818240447876 222.91163717837537 L 599.8134882276431 225.42062450266053 L 593.2799563600234 226.574888422201 L 585.3530636299332 226.4091705232379 L 576.2179571641202 225.01787490842128 L 566.0979728958225 222.54260861330903 L 555.2403733668399 219.1559480842381 L 543.901109025296 215.0441780612478 L 532.3303453078665 210.3915524773832 L 520.7601795909627 205.36790575623382 L 509.39545362803244 200.1204836005972 L 498.4079948397567 194.76996000880945 L 487.9341219188567 189.40996244187045 L 478.07490401001473 184.1091082704695 L 468.89848824128626 178.9145221387712 L 460.4437837894573 173.85595838289885 L 452.7248659932153 168.94989149672563 L 445.73559265704114 164.2031814551076 L 439.45406737154076 159.61612371456215 L 433.846715899182 155.1848391367057 L 428.8718486913779 150.903049028253 L 424.4826620120235 146.7633262035029 L 420.62968411563 142.75792795365567 L 417.26270617696434 138.8793130625504 L 414.3322554562263 135.12043162807458 L 411.79067525230454 131.47485952572902 L 409.59287634422407 127.93683252263088 L 407.69682065242637 124.50122018832701 L 406.0637917123102 121.16346758048701 L 404.65849951942266 117.91952326591513 L 403.44906017222695 114.7657652832496 L 402.4068839665031 111.69893173746573 L 401.50649942969665 108.7160593923 L 400.7253353310554 105.81443149059618 L 400.04347798762103 102.9915347466131 L 399.44341718162025 100.24502475229605 L 398.90979065916656 97.57269872102736 L 398.4291344278207 94.97247441261018 L 397.98964384097974 92.44237414159858 L 397.58094867996897 89.98051290054985 L 397.1939040530776 87.5850897878538 L 396.8203978625882 85.25438209125403 L 396.4531747900632 82.98674152946467 L 396.0856761670593 80.78059228944608 L 395.7118946897421 78.63443061466586 L 395.32624266438 76.54682580150958 L 394.9234323050121 74.51642254982983 L 394.49836651854764 72.54194469302365 L 394.04603858473996 70.6222004068141 L 393.56143915160743 68.75608906791285 L 393.03946900728795 66.94261000774208 L 392.4748561464639 65.18087348616683 L 391.86207571547584 63.47011429959028 L 391.1952714894315 61.8097085408551 L 390.4681776033199 60.19919414958798 L 389.67403932539844 58.63829603584895 L 388.8055317245142 57.12695673280675 L 387.85467514466166 55.66537374210466 L 386.8127464626248 54.25404498605815 L 385.67018517239984 52.893824082435486 L 384.4164934197004 51.585987520147626 L 383.0401292102234 50.33231624880793 L 381.5283921487828 49.13519471404169 L 379.867301249465 47.99773098662283 L 378.04146461183115 46.92390236002262 L 376.0339411145164 45.91873163948259 L 373.82609477484624 44.98850032439475 L 371.39744311370157 44.14100599541686 L 368.7255018181557 43.385872446061995 L 365.7856293016902 42.73492241103014 L 362.55087654261484 42.202624070054725 L 358.99184999103915 41.80662372016184 L 355.07659857329156 41.56837789876428 L 350.7705401440683 41.513898464016904 L 346.0364484580391 41.6746231673294 L 340.8345292410125 42.088421283633465 L 335.12262369210623 42.8007377127237 L 328.85659025287845 43.86586792052901 L 321.9909312594599 45.34833775197484 L 314.479750594709 47.32433325025764 L 306.27815187991325 49.88308189277279 L 297.34421375355237 53.12802283882553 L 287.6417080260016 57.177513960483566 L 277.1437548592005 62.164702027073986 L 265.8376306254361 68.23602641959286 L 253.7309484171413 75.54763986426877 L 240.85940177550538 84.25882937394562 L 227.29617447709057 94.5213488745058 L 213.16293944815095 106.46351261528434 L 198.64205674064488 120.16807964222119 L 183.98909212157528 135.6435787176598 L 169.54408870296479 152.79001537854128 L 155.73915657879732 171.36207075042927 L 143.09901775512662 190.93595401819016 L 132.23042541833786 210.88956461711365 L 123.79632407350675 230.40837685731987 L 118.4718301964416 248.52946504998926 L 116.88213817121311 264.2309569838776 L 119.52739259036042 276.5625410469962 L 126.7055706823993 284.79608935185314 L 138.44942495080136 288.56007246068725 L 154.49470310998709 287.91638679906157 L 174.29197729338927 283.3504815620098 L 197.06374130402077 275.6735122484405 L 221.89557414812552 265.8663072695636 L 247.84065159413376 254.9130338186389 L 274.0149453580144 243.6689082411658 L 299.66633125524424 232.78582307582604 L 324.21090834833126 222.6956332360449 L 347.2392821818978 213.63468063315685 L 368.50121271213584 205.68862146292378 L 387.8783780198 198.84055196202638 L 405.3534115760145 193.01245089926124 L 420.9806193151163 188.09618494557833 L 434.8611638006429 183.97426283615476 L 447.1235960391082 180.5323164485585 L 457.9094860019873 177.6656766816601 L 467.36337650328466 175.28211409428422 L 475.62614050202126 173.302298069362 L 482.83087911881466 171.6590311545446 L 489.10063829079587 170.29592397079148 L 494.54737961353135 169.16590067248586 L 499.2717840372644 168.22974534169168 L 503.36358445252773 167.4547895665579 L 506.90221383308415 166.81377778054525 L 509.95762288144044 166.28391256953432 L 512.591169684204 165.84606537875368 L 514.8565181982007 165.4841313367042 L 516.800506209045 165.18450562534144 L 518.4639596729834 164.93566022656455 L 519.8824412777109 164.7278024118816 L 521.0869282501361 164.5525991779965 L 522.1044190535181 164.40295454714237 L 522.9584714696084 164.2728290641457 L 523.669676225097 164.1570928764379 L 524.2560711928752 164.0514054865788 L 524.7335015512618 163.95211665608394 L 525.1159313058616 163.85618406075497 L 525.4157113964638 163.76110419747073 L 525.6438093108603 163.6648537620987 L 525.8100047653784 163.5658392932699 L 525.9230556251302 163.4628533364109 L 525.9908378488179 163.35503575016202 L 526.0204628675581 163.2418390718032 L 526.018375452657 163.12299709427066 L 525.9904347976225 162.9984959963332 L 525.9419812363988 162.86854751857317 L 525.8778907427893 162.73356379816153 L 525.8026191042625 162.59413357073015 L 525.7202374353673 162.45099952254003 L 525.634460490168 162.30503663437514 L 525.5486690477643 162.15723140328384 L 525.465927478527 162.0086618620598 L 525.3889974496698 161.8604783414267 L 525.3203485958941 161.71388493816818 L 525.262166862849 161.57012166555705 L 525.2163611269866 161.43044727177892 L 525.1845686040124 161.2961227187995 L 525.1681594785816 161.16839531928235 L 525.1682411192479 161.0484835335348 L 525.1856621839906 160.93756243269627 L 525.2210168720289 160.8367498389652 L 525.2746495361151 160.74709315894188 L 525.3466598351587 160.66955693234434 L 525.4369085788766 160.60501112551503 L 525.545024393224 160.554220207242 L 525.6704113166462 160.51783305331332 L 525.8122574217168 160.49637373567134 L 525.9695445435347 160.490233261691 L 526.1410591843915 160.49966233855753 L 526.3254046528193 160.52476524648756 L 526.5210144833449 160.56549491208807 L 526.7261671703785 160.62164927890427 L 526.9390022350058 160.6928690755979 L 527.1575376265076 160.7786370826277 L 527.3796884408332 160.87827899523774 L 527.6032869157699 160.99096597350245 L 527.8261036371476 161.11571895873817 L 528.0458698622389 161.25141481949169 L 528.2603008359076 161.39679436944272 L 528.4671199425735 161.55047227396778 L 528.6640835034462 161.7109488320831 L 528.8490059946727 161.87662358651022 L 529.0197854291318 162.045810677419 L 529.1744286138406 162.2167558159602 L 529.311075967603 162.38765471317475 L 529.4280255610056 162.55667275961486 L 529.5237560244565 162.72196571251186 L 529.596947960901 162.88170111214436 L 529.6465034992025 163.03408011874438 L 529.671563632766 163.17735943731282 L 529.6715230063488 163.30987298139945 L 529.6460418423051 163.43005291930638 L 529.5950547355658 163.53644974802864 L 529.5187760937988 163.6277510519119 L 529.4177020544273 163.70279862441902 L 529.2926087720484 163.76060366205303 L 529.144547036559 163.80035977844477 L 528.9748332518932 163.82145363256967 L 528.7850368755257 163.82347301634525 L 528.5769644874692 163.8062123016012 L 528.3526407221569 163.76967520255835 L 528.1142863552025 163.714074865447 L 527.8642938877014 163.63983134973432 L 527.6052010119345 163.54756661381816 L 527.3396623728971 163.4380971604332 L 527.070420059348 163.3124245322096 L 526.800273265811 163.1717238750133 L 526.5320475634625 163.01733080547626 L 526.2685642037816 162.85072682949266 L 526.0126098553546 162.67352356078845 L 525.7669071427064 162.4874459836646 L 525.534086318167 162.29431499264285 L 525.3166583553663 162.09602942516835 L 525.1169897078584 161.89454778303462 L 524.9372789304654 161.69186981514076 L 524.7795353159097 161.4900181098934 L 524.645559656764 161.29101982129248 L 524.5369272040022 161.09688862964043 L 524.4549728595708 160.90960701689005 L 524.4007786121915 160.7311089187354 L 524.3751632035438 160.56326280130702 L 524.3786739962613 160.4078552002269 L 524.4115810057078 160.26657475410605 L 524.4738730539495 160.14099676343608 L 524.5652560061176 160.03256830919122 L 524.6851530556928 159.9425939731106 L 524.8327070351882 159.87222221321304 L 525.0067847411658 159.82243246311396 L 525.2059832763349 159.79402304153507 L 525.4286384253592 159.78759997825279 L 525.6728350936858 159.8035668837398 L 525.936419848893 159.842116010901 L 526.2170156104964 159.90322067748173 L 526.512038535663 159.9866292357175 L 526.8187171438083 160.0918607903294 L 527.1341137116771 160.21820287573075 L 527.4551479515306 160.36471130699198 L 527.778622958035 160.53021241546497 L 528.1012533742091 160.71330786787462 L 528.419695683536 160.91238224621532 L 528.7305804846425 161.12561353430533 L 529.0305465477873 161.3509866150589 L 529.3162763902023 161.5863098305877 L 529.5845330419144 161.8292345957961 L 529.8321976073194 162.07727798638325 L 530.056307163057 162.3278481458952 L 530.2540924725304 162.57827227600558 L 530.4230149447674 162.8258268923887 L 530.5608022233063 163.06776994863526 L 530.6654817623512 163.3013743561741 L 530.7354117352538 163.5239623627233 L 530.7693086266034 163.73294019893274 L 530.7662708854114 163.92583236576786 L 530.7257980637994 164.10031491647612 L 530.6478049330944 164.25424708853495 L 530.5326301561602 164.3857006637566 L 530.3810391990396 164.4929864786102 L 530.1942212834681 164.57467757061772 L 529.9737803106443 164.62962852810824 L 529.7217198212708 164.6569907064337 L 529.4404221922932 164.65622307993203 L 529.1326224018385 164.62709861087984 L 528.8013768155166 164.56970612956786 L 528.4500275548683 164.48444782862646 L 528.082163098308 164.3720325753378 L 527.701575833295 164.23346533397842 L 527.3122173235687 164.07003306313777 L 526.9181520761259 163.8832875082868 L 526.5235105893682 163.67502534649248 L 526.1324424377574 163.44726615795747 L 525.7490701016296 163.20222869884543 L 525.3774441865825 162.94230593327518 L 525.0215005987022 162.670039251729 L 524.6850201538962 162.3880922611852 L 524.3715910059003 162.0992244820684 L 524.0845741822827 161.8062652317069 L 523.8270724248129 161.51208791638942 L 523.6019024433692 161.21958489709868 L 523.4115706140369 160.93164304000538 L 523.2582520845001 160.65112001389315 L 523.1437731949472 160.38082135449804 L 523.0695970814717 160.1234782815102 L 523.0368123017925 159.8817262285474 L 523.046124309846 159.6580840302547 L 523.0978496057509 159.4549337040006 L 523.1919123996955 159.2745007663433 L 523.3278436509966 159.118835036233 L 523.5047823751274 158.98979189730915 L 523.721479149968 158.88901401996986 L 523.9763017956806 158.8179135793148 L 524.2672432482087 158.77765504657805 L 524.5919316920306 158.7691386780806 L 524.9476430610582 158.79298487564415 L 525.3313160550139 158.84951964416643 L 525.7395698498093 158.9387614237736 L 526.1687247020443 159.06040962346094 L 526.6148256574972 159.21383522798703 L 527.0736695693427 159.39807388732112 L 527.5408356120287 159.61182192532362 L 528.011719439867 159.853435718622 L 528.4815710845155 160.12093489494737 L 528.9455366123439 160.41200977982606 L 529.398703471589 160.72403347920363 L 529.8361493514965 161.05407892165636 L 530.2529942535248 161.3989410965417 L 530.6444553413971 161.7551646140472 L 531.0059039965864 162.11907658123562 L 531.3329243639794 162.4868246378744 L 531.6213725350974 162.8544198316373 L 531.8674353901685 163.21778384017136 L 532.067688012688 163.5727998748331 L 532.2191485080866 163.91536643591542 L 532.3193290084622 164.24145294076334 L 532.3662816339234 164.54715612319944 L 532.3586382123963 164.82875601344108 L 532.2956426364423 165.08277025920887 L 532.1771748582142 165.3060055461807 L 532.0037656901675 165.49560492207712 L 531.7766017850793 165.64908992345624 L 531.4975204073708 165.7643965447678 L 531.1689938695902 165.83990426950072 L 530.7941037823874 165.87445759491675 L 530.3765055415128 165.86737971443222 L 529.920383739006 165.81847826340595 L 529.4303994259799 165.7280432726875 L 528.9116303605067 165.5968376979567 L 528.3695055372585 165.42608109106868 L 527.80973540927 165.21742714368986 L 527.2382392727619 164.97293595730935 L 526.661071292614 164.69504197382014 L 526.0843466008358 164.3865185366456 L 525.5141688078895 164.05044004581782 L 524.9565601337767 163.6901426256685 L 524.4173952008096 163.30918414679275 L 523.9023393423621 162.9113043417169 L 523.4167920814469 162.50038563383737 L 522.9658362292672 162.080415169258 L 522.5541928558719 161.6554484082605 L 522.1861822004612 161.22957450355807 L 521.8656904241827 160.80688357146937 L 521.5961419683083 160.39143585377252 L 521.3804771688 159.98723267521626 L 521.2211346962858 159.59818902634527 L 521.1200383388002 159.22810754440923 L 521.0785876225635 158.8806536269036 L 521.0976517718615 158.55933139242268 L 521.1775665402633 158.26746020132146 L 521.3181334989582 158.0081514632932 L 521.5186214404997 157.78428548940258 L 521.7777696440855 157.59848819136113 L 522.0937928478961 157.4531074898972 L 522.4643878811405 157.35018936594764 L 522.886742019433 157.29145357198985 L 523.3575432380237 157.27826911488734 L 523.872992644267 157.3116297245964 L 524.4288194694601 157.39212963298928 L 525.020299086655 157.5199401013473 L 525.6422745909643 157.69478725049805 L 526.2891825278756 157.91593186004104 L 526.9550833788009 158.18215190767694 L 527.633697407255 158.49172871050223 L 528.3184464297271 158.84243760067227 L 529.0025019990919 159.23154411091127 L 529.6788403727575 159.65580665356282 L 530.340304481381 160.11148664305932 L 530.9796729171852 160.59436692945349 L 531.5897357260444 161.0997792751017 L 532.1633765192328 161.6226414150252 L 532.6936601263844 162.15750399417232 L 533.1739247008742 162.69860737563903 L 533.5978768752582 163.2399479708796 L 533.9596882627869 163.7753533683516 L 534.2540913282965 164.29856514739708 L 534.47647242597 164.80332787956087 L 534.6229596403623 165.2834824626666 L 534.6905029871219 165.7330616276031 L 534.6769445445627 166.14638522698533 L 534.5810762059679 166.51815277897344 L 534.4026829690724 166.84353071411124 L 534.1425700109928 167.1182318670351 L 533.8025722244652 167.3385849693343 L 533.385545398363 167.5015922271367 L 532.8953387896427 167.60497349110597 L 532.3367494279189 167.64719602395866 L 531.7154590874836 167.627489412148 L 531.0379554236306 167.54584572154357 L 530.3114392708962 167.40300552876636 L 529.5437205142217 167.20043093959322 L 528.7431052496411 166.94026710758385 L 527.9182771354656 166.6252940706239 L 527.0781758924838 166.25887091916456 L 526.2318758447702 165.84487439464004 L 525.3884672110104 165.387633994745 L 524.5569425757602 164.89186554552634 L 523.7460906113754 164.3626050051571 L 522.9643987079578 163.80514401048458 L 522.219965725075 163.22496838578473 L 521.5204256290042 162.62770052381381 L 520.8728823444803 162.0190462403972 L 520.2838557487838 161.40474641059154 L 519.7592383829515 160.7905334285074 L 519.3042621601745 160.1820923021054 L 518.9234741211449 159.58502600317593 L 518.6207201225039 159.00482454277608 L 518.3991352466493 158.44683713282473 L 518.2611396854102 157.91624672287435 L 518.2084388710514 157.4180461638665 L 518.2420266990632 156.9570152441566 L 518.3621908009851 156.53769786361352 L 518.5685189747196 156.16437865601864 L 518.8599060572898 155.84105843589697 L 519.2345607241195 155.5714279317346 L 519.6900119135515 155.35883937251657 L 520.2231147999199 155.20627561860192 L 520.8300564678916 155.11631667155893 L 521.5063616700904 155.0911035613163 L 522.2468992742611 155.1322997932624 L 523.0458902202097 155.24105074252884 L 523.8969180046737 155.41794160632782 L 524.7929428875698 155.6629547649644 L 525.7263211581978 155.9754276530267 L 526.6888309064054 156.35401249672861 L 527.6717058019328 156.79663952104198 L 528.6656783849692 157.30048545763856 L 529.6610343019133 157.86194937534032 L 530.6476787724391 158.47663798976015 L 531.6152163385383 159.1393626673629 L 532.553044617052 159.84415030009723 L 533.4504623518294 160.5842700701296 L 534.2967915426912 161.3522778336303 L 535.0815128248425 162.1400794175716 L 535.7944126007496 162.93901354224124 L 536.4257397113668 163.73995436379062 L 536.9663687077505 164.53343279761071 L 537.4079660876747 165.30977487036193 L 537.7431552406982 166.059254405037 L 537.9656753480318 166.7722564295825 L 538.0705291586129 167.4394468826963 L 538.0541144531566 168.05194353954596 L 537.9143341470631 168.60148265947487 L 537.6506803902944 169.08057571925593 L 537.2642886992095 169.48265077211875 L 536.7579590832588 169.80217347320672 L 536.1361422690928 170.03474361747544 L 535.4048904177168 170.17716409998968 L 534.5717731032915 170.22748046062605 L 533.6457606919719 170.18499052703453 L 532.6370785402709 170.05022502400186 L 531.5570365443832 169.824901277587 L 530.4178394465807 169.5118532227371 L 529.2323838923145 169.1149417566483 L 528.014048504426 168.638950024716 L 526.7764831951275 168.08946846650338 L 525.5334035914382 167.4727743971169 L 524.2983958447028 166.79571058870204 L 523.0847362839153 166.06556679820108 L 521.9052294192959 165.28996752153267 L 520.7720667735844 164.4767685041112 L 519.6967079779854 163.6339637626914 L 518.6897845747088 162.769604125069 L 517.7610260652343 161.89172761194084 L 516.9192069671667 161.00830139627288 L 516.172113014472 160.12717459451648 L 515.5265241656233 159.25604077470376 L 514.988211770925 158.40240880392304 L 514.5619470849354 157.5735804908703 L 514.2515182774578 156.77663339344247 L 514.0597531783995 156.0184071406851 L 513.9885451677909 155.30549164732656 L 514.0388798725404 154.64421566396527 L 514.2108606377233 154.04063419580473 L 514.5037310864468 153.50051342995664 L 514.9158934555821 153.02931193142757 L 515.4449217848775 152.63215699990616 L 516.0875694370021 152.31381522531245 L 516.8397708311329 152.0786564442397 L 517.6966376798445 151.93061048845578 L 518.6524504264297 151.8731163384668 L 519.7006459857236 151.9090635583902 L 520.8338032937658 152.04072620140926 L 522.0436285663669 152.2696897449796 L 523.3209425475033 152.59677204628935 L 524.6556723858145 153.02193980182108 L 526.0368510976182 153.54422254524133 L 527.4526278395776 154.16162681303257 L 528.8902924005848 154.8710537262146 L 530.3363174033256 155.66822384800258 L 531.776421650721 156.54761373927835 L 533.195657828615 157.5024090937162 L 534.57852735209 158.52447963071086 L 535.9091244912172 159.60438098964755 L 537.1713110138871 160.73138863589054 L 538.348921432782 161.8935681964009 L 539.4259975529288 163.07788564632284 L 540.3870494207318 164.27035934837147 L 541.2173380361621 165.456254121465 L 541.9031733955546 166.6203153448564 L 542.4322196976456 167.74703869862765 L 542.7937980049194 168.82096865786258 L 542.9791754519707 169.8270164925753 L 542.9818293763917 170.75078649868783 L 542.7976746417334 171.57889771827536 L 542.4252430175434 172.2992876948847 L 541.8658048187142 172.90148499219202 L 541.1234250629477 173.37683834214215 L 540.2049490899593 173.7186923463613 L 539.1199157417946 173.92250249603558 L 537.8803996179577 173.9858856745189 L 536.5007873439628 173.9086059717971 L 534.997495969011 173.6924992479195 L 533.3886442967507 173.34134312037395 L 531.6936899550909 172.86068165304033 L 529.9330461937919 172.25761580569758 L 528.1276927058498 171.540571574012 L 526.2987942235279 170.71905772158328 L 524.4673393371158 169.8034241780826 L 522.6538100753756 168.80463071772647 L 520.8778904582326 167.73403364570828 L 519.1582196850279 166.60319612133094 L 517.5121930483907 165.4237256334947 L 515.9558112326705 164.2071401795837 L 514.5035764987482 162.9647629993026 L 513.168432463886 161.70764434856864 L 511.9617428038764 160.4465077881792 L 510.8933032449336 159.19171779400983 L 509.9713806533857 157.95326513002135 L 509.20277282861923 156.74076630684908 L 508.5928827013753 155.5634735155466 L 508.1458009718358 154.4302916178671 L 507.86439172680076 153.3497990376008 L 507.7503761947377 152.33026968792046 L 507.80441048205563 151.37969335436708 L 508.0261538442399 150.50579220992245 L 508.4143247527624 149.71603135557746 L 508.96674270452223 149.01762145377825 L 509.68035437590004 148.41751165754238 L 510.55124334721603 147.9223711456034 L 511.57462322080517 147.53855766972953 L 512.7448145371719 147.27207162495364 L 514.0552064719432 147.12849429137862 L 515.4982048860832 147.11290909533966 L 517.0651689170253 147.22980502849236 L 518.7463389504745 147.48296177786892 L 520.5307595084571 147.87531668998577 L 522.4062013286086 148.40881444696038 L 524.3590876830723 149.0842412954317 L 526.3744307710616 149.90104685215977 L 528.4357847809111 150.85715790912445 L 530.525222902508 151.94879024788725 L 532.6233461088343 153.1702661894306 L 534.7093318280206 154.51384735591 L 536.7610305919643 155.96959376710817 L 538.7551182619823 157.5252617565186 L 540.6673103835146 159.1662540519515 L 542.472643510706 160.87563548097012 L 544.1458258973768 162.634226888404 L 545.6616567523963 164.42078777906306 L 546.9955093535912 166.21229478372493 L 548.1238688422305 167.9843182689021 L 549.0249107175728 169.71149341011426 L 549.6791012575652 171.3680751545184 L 550.0697967353349 172.92855923921178 L 550.1838148656095 174.36834450444064 L 550.0119498909476 175.66440595024824 L 549.5494025366237 176.79594413949332 L 548.7960980278257 177.7449753376061 L 547.7568695806576 178.4968286377566 L 546.4414911137148 179.0405213307185 L 544.8645509852151 179.3689916102894 L 543.0451677120127 179.4791776267412 L 541.0065580704143 179.3719428700121 L 538.7754768402107 179.0518586783851 L 536.3815549001469 178.526864149554 L 533.8565677369725 177.80783090898336 L 531.2336692566907 176.90806444351506 L 528.5466259444329 175.84277483525653 L 525.8290840634504 174.62854794500117 L 523.1138981229126 173.2828439455741 L 520.4325428656721 171.82354435537377 L 517.814624203386 170.2685622034827 L 515.2874975228394 168.63552344455138 L 512.8759951857021 166.94152185613353 L 510.6022592902038 165.20294481176313 L 508.48567114366983 163.43536373682605 L 506.5428655378274 161.65348074197135 L 504.7878158155736 159.8711217705344 L 503.23197475522005 158.10126638430478 L 501.8844562948059 156.35610479938617 L 500.7522438600694 154.64711372507048 L 499.84041232547054 152.98514373547044 L 499.15235222485205 151.38051214034203 L 498.6899865630525 149.84309648917736 L 498.45397232416894 148.38242485671253 L 498.4438804255845 147.0077598715652 L 498.6583493635576 145.72817404514882 L 499.0952091007729 144.55261433858817 L 499.7515728485339 143.48995408823419 L 500.62389530577116 142.54903042112431 L 501.7079966582452 141.738665160942 L 502.9990522496971 141.06766698652848 L 504.49154835543976 140.54481229571826 L 506.1792049665112 140.1788018882454 L 508.0548669809442 139.97819025978663 L 510.11036575161006 139.951284050381 L 512.3363536111958 140.10600608096541 L 514.7221148358213 140.4497215210127 L 517.2553575662132 140.98902315155465 L 519.9219925166635 141.72947352727766 L 522.7059058897611 142.67530321351643 L 525.5887357791463 143.82906629349145 L 528.549663451571 145.19125710852825 L 531.5652331787167 146.75989577467556 L 534.6092166095001 148.5300944153514 L 537.6525398405762 150.49362116600065 L 540.6632930893261 152.63848461218686 L 543.6068438591916 154.9485670143639 L 546.4460743081645 157.4033398515429 L 549.1417617470424 159.97769908486907 L 551.6531173732554 162.64195914172035 L 553.9384921341293 165.3620429186219 L 555.9562498204623 168.09989913886955 L 557.6657961917349 170.81416749987068 L 559.0287395631706 173.46109604840484 L 560.0101437076427 175.99569472658743 L 560.5798194531244 178.37308555210603 L 560.7135886791882 180.5499858833286 L 560.3944454367438 182.48623986728882 L 559.6135354840919 184.14629798790622 L 558.3708791124653 185.50053882584473 L 556.6757734550954 186.52633288899375 L 554.5468292544585 187.2087661972812 L 552.0116218866583 187.5409697201926 L 549.1059648484484 187.52403634055167 L 545.8728427124875 187.16654491755924 L 542.3610663339181 186.48374590853024 L 538.6237327822621 185.49649010060602 L 534.716583892057 184.22999800552986 L 530.6963595189366 182.71257113479095 L 526.6192349283207 180.97433856546763 L 522.5394177687402 179.04611550502807 L 518.5079611246418 176.95842853364718 L 514.5718278665267 174.74073859370418 L 510.77322045561255 172.42087084361054 L 507.14917157505715 170.02464247824253 L 503.7313758341464 167.57566671794473 L 500.54623199244753 165.09530355297397 L 497.61505871002805 162.60272491935785 L 494.95444430382065 160.1150627541204 L 492.5766916442312 157.64761165886785 L 490.4903223053183 155.21406258165695 L 488.7006085459146 152.82674909459763 L 487.21010691073354 150.4968928349079 L 486.019172611698 148.23483907183197 L 485.12643895316864 146.05027694994521 L 484.5292506227288 143.95244168442673 L 484.22404352956073 141.95029789074545 L 484.20666697997206 140.05270442053353 L 484.4726463480389 138.26856166920714 L 485.0173860872803 136.6069424392249 L 485.8363140214463 135.0772071903603 L 486.92496844595087 133.68910396800788 L 488.2790297667504 132.4528525329073 L 489.8942982996382 131.37921126150172 L 491.7666195457034 130.4795242712882 L 493.89175784087286 129.76574496725232 L 496.26521884092307 129.25043082014258 L 498.8820209422537 128.9467026990643 L 501.7364155531121 128.868160531758 L 504.8215562294297 129.0287455278317 L 508.12911719604904 129.4425377881047 L 511.6488628237751 130.12347700986288 L 515.3681713736373 131.0849934284454 L 519.2715189067854 132.33953644033966 L 523.3399328406481 133.89798995304125 L 527.5504293318257 135.7689669083233 L 531.8754545476204 137.95798119188504 L 536.2823569117878 140.46650383646335 L 540.7329253756571 143.29092250854853 L 545.1830372434539 146.42143894800859 L 549.5824673402016 149.84095805315366 L 553.8749172612088 153.52404371487427 L 557.9983276067223 157.43603839438242 L 561.8855356595766 161.53246276803213 L 565.4653338767749 165.75882434094638 L 568.6639688759545 170.05096470407966 L 571.4070948377979 174.33605884943768 L 573.62215900046 178.53434242431837 L 575.241151437041 182.56158228458378 L 576.2036000007042 186.3322246508436 L 576.4596399965449 189.76306141837335 L 575.9729446629257 192.77716210431691 L 574.7232758454898 195.30774397800576 L 572.7084126239944 197.30161429799932 L 569.9452446670535 198.72183052326136 L 566.4698775572974 199.5492923885588 L 562.3366840841317 199.7830973968522 L 557.6163375419662 199.43964011842945 L 552.392965328467 198.55058888354887 L 546.7606475660599 197.1600024671207 L 540.8195426534401 195.32093136977596 L 534.6719418261251 193.0918719262993 L 528.4185373704352 190.533408862798 L 522.1551402769837 187.7053067073232 L 515.9700137584199 184.6642127474023 L 509.94191193244865 181.4620346939189 L 504.1388397966442 178.1449712467317 L 498.6174900450541 174.7531129152909 L 493.4232690037748 171.32049628407907 L 488.5907989460417 167.87548456711397 L 484.1447753893932 164.44135481005327 L 480.1010621119767 161.03699062062742 L 476.4679194197198 157.6776026752574 L 473.2472787692964 154.37542281805486 L 470.43599604547427 151.140338410479 L 468.02703434299656 147.98045028471262 L 466.01054360792057 144.9025498922215 L 464.3748182520287 141.9125194065773 L 463.10712468127235 139.0156633671525 L 462.1943987220229 136.21698276441134 L 461.6238185178919 133.5214030387491 L 461.3832620119164 130.9339669321293 L 461.4616600367289 128.46000197932756 L 461.84925668672474 126.10527099049341 L 462.53778836455086 123.8761123714105 L 463.5205919425177 121.7795756668815 L 464.79265106293326 119.82355633813125 L 466.35058787373964 118.01693248734637 L 468.1926055682338 116.36970497574407 L 470.31838504732605 114.8931410749542 L 472.7289369021434 113.59992035580876 L 475.4264077603077 112.50427985066824 L 478.4138378804908 111.62215351108455 L 481.6948647491827 110.97129850033008 L 485.2733653768768 110.57139778678277 L 489.15302808008164 110.44412472446658 L 493.33684288382545 110.61315073252035 L 497.82649845851296 111.10407178213069 L 502.62167296604713 111.94422323230037 L 507.7192066849775 113.16234585136567 L 513.1121462870783 114.7880590940556 L 518.7886547598223 116.8510917063096 L 524.7307879616062 119.38021581923044 L 530.9131495245408 122.40183079941283 L 537.3014511928229 125.9381498803649 L 543.851026518503 130.00495934189678 L 550.505372617379 134.60895055991392 L 557.1948272190734 139.74467341459535 L 563.835525164975 145.3912280879755 L 570.3288167063769 151.50890136654465 L 576.5613639896499 158.03605862046584 L 582.4061538077939 164.88671195835445 L 587.724663228733 171.94927788522307 L 592.3703776091231 179.087084037483 L 596.1937759342748 186.14114792370265 L 599.0487589755717 192.93559644476443 L 600.8003033879027 199.28580343700162 L 601.3328959014606 205.00890447167342 L 600.5590697981586 209.93585861084188 L 598.4271800184146 213.92376695906637 L 594.927469578948 216.86685824981578 L 590.095546178886 218.7045346646787 L 584.0126247124335 219.42520144475753 L 576.8022780259738 219.06524883688093 L 568.6239091346098 217.7033763371973 L 559.6636164895491 215.45124016922802 L 550.1234691904494 212.4419607605417 L 540.2103683757056 208.8182191814168 L 530.1256216268933 204.7214898255882 L 520.0561303940971 200.28350058822417 L 510.167756460178 195.62044066353621 L 500.60107550256305 190.829905388445 L 491.4694146971017 185.9901818876151 L 482.85884999878857 181.16127588884353 L 474.8297194346671 176.38704020455157 L 467.41917968515577 171.69783934776808 L 460.6443696110904 167.11331680842954 L 454.5058185829147 162.64497609120053 L 448.9908258554268 158.29841468303198 L 444.07662316965974 154.0751483016258 L 439.7332067329358 149.97402899079214 L 435.9257828879156 145.99229918563537 L 432.61681406455983 142.1263415862323 L 429.7676800091051 138.37218842457395 L 427.3399866032945 134.72584920484678 L 425.29656366117183 131.18350744174245 L 423.6021963955753 127.7416270937141 L 422.22413475683 124.39699993395283 L 421.1324220392679 121.14675685842906 L 420.3000800774258 117.98835940755345 L 419.703183727343 114.91958257377973 L 419.3208526138303 111.9384961177459 L 419.13518360855545 109.04344889083711 L 419.13114335021675 106.23305882464996 L 419.2964364084203 103.50621008207244 L 419.6213614545262 100.86205819000682 L 420.098665028467 98.3000436475553 L 420.7234001517475 95.81991441846577 L 421.49279509230985 93.42175779560787 L 422.4061359886741 91.10604231525298 L 423.46466573768663 88.87367066550951 L 424.67150049041777 86.7260448554735 L 426.03156423275806 84.66514527781024 L 427.55154120031824 82.69362570161204 L 429.2398452411354 80.81492667114378 L 431.1066046439511 79.03341025594881 L 433.1636603424613 77.35451959203456 L 435.4245747317729 75.78496715918436 L 437.9046475318893 74.33295623158119 L 440.6209341363048 73.00844037683942 L 443.5922606132687 71.82342619646721 L 446.8392278914565 70.79232459744415 L 450.38419555345286 69.93235560853861 L 454.25123295490135 69.26401088512148 L 458.4660219420513 68.81157626661243 L 463.0556910987439 68.60371361895551 L 468.0485560526572 68.67409610438531 L 473.4737337589422 69.06208316114015 L 479.36059075127014 69.81340979305446 L 485.7379761007635 70.98084794583525 L 492.633179438174 72.62477422338185 L 500.070543389058 74.8135462779363 L 508.06964919312685 77.62354832347899 L 516.6429859921034 81.13871345605946 L 525.7930113319997 85.4492674856694 L 535.508517536782 90.64936955834906 L 545.7602425861464 96.83325809315491 L 556.4957142394911 104.08946396892532 L 567.6334040291164 112.49265579945563 L 579.0564063915787 122.09277853784641 L 590.6060592662998 132.90139512564878 L 602.0761909354826 144.8756074679817 L 613.2090031885966 157.90067123899155 L 623.693944763027 171.77343159433173 L 633.1712117307496 186.1898876210072 L 641.2416030874881 200.7412621638888 L 647.4841871602819 214.92342075992195 L 651.4824196200602 228.16370713918968 L 652.8578948811776 239.86667117438293 L 651.3088996698395 249.47565549521022 L 646.6487601726553 256.5415894179546 L 638.8373342317615 260.785500542726 L 627.9987375085842 262.1396623258977 L 614.4201088232273 260.75575728571806 L 598.5298431957862 256.9766859493271 L 580.8583034166763 251.27885923750387 L 561.988015251806 244.1997544284867 L 542.5023216162929 236.2679286322615 L 522.9408251016768 227.94913719935187 L 503.7672011617133 219.6150895415018 L 485.3513689648072 211.5341640592133 L 467.96485221182695 203.87864664968822 L 451.7862175161776 196.74146566579952 L 436.9128532986535 190.1562158024375 L 423.3757042954237 184.11621292404334 L 411.1544206386557 178.59034389209444 L 400.19131450855775 173.53501475549746 L 390.40330744038516 168.90243055498314 L 381.6916133470983 164.6458673420371 L 373.9492456880648 160.72269744729937 L 367.06661206524666 157.09585745550254 L 360.9355223584414 153.73431021632405 L 355.4519341812339 150.61290687478157 L 350.51772489456147 147.7119293498156 L 346.0417331337519 145.01649606219138 L 341.94026609285834 142.51594285908385 L 338.137227020163 140.20324226747084 L 334.56398238329194 138.07449204659872 L 331.1590600105927 136.12848372673443 L 327.86774743890254 134.3663496356125 L 324.6416426668978 132.79128001908043 L 321.43819651193536 131.4082982640046 L 318.22027590775804 130.2240805579653 L 314.9557700266821 129.24680565645212 L 311.61725547173336 128.48602018496217 L 308.1817324858101 127.95250472248512 L 304.630440775652 127.65812560240539 L 300.9487608153482 127.61565686016507 L 297.12620407997167 127.83855609027853 L 293.15649328606145 128.34067727926794 L 289.0377311112976 129.1359031831958 L 284.7726527635747 130.23767985069537 L 280.3689539094728 131.6584369002785 L 275.83968061384235 133.40887970629115 L 271.20366189179106 135.4971443973697 L 266.4859581246195 137.9278142547716 L 261.71828997999864 140.7008074269081 L 256.93940286201604 143.81016140291797 L 252.19531186516943 147.2427595954627 L 247.53936268271895 150.9770692071761 L 243.03203635771746 154.98198586092036 L 238.74042208616973 159.21590654181182 L 234.73728481978827 163.62617402817006 L 231.09966569671874 168.1490475632682 L 227.90697566639534 172.71034951151273 L 225.23857757092134 177.22690979335198 L 223.17089933913383 181.60887450781274 L 221.77417844862384 185.7628618089276 L 221.10900013010132 189.59584229152455 L 221.22285068800096 193.019505545902 L 222.1469523211621 195.95476848057496 L 223.89366590376954 198.3360075151632 L 226.45473416854009 200.1145773078319 L 229.80058510405064 201.26122681753128 L 233.8808265118119 201.76713912334952 L 238.6259476701263 201.64348841371185 L 243.95011954821953 200.91959615006039 L 249.754870915358 199.63994228474473 L 255.93333268651935 197.8604134105206 L 262.37469999407125 195.6442267652809 L 268.9685652725487 193.05795307293488 L 275.6088215040668 190.16798469152252 L 282.19691090859203 187.03768196293595 L 288.64428528055845 183.7253068769947 L 294.8740345180956 180.2827422701386 L 300.8217175186348 176.75491166037028 L 306.43548721124887 173.17976504338958 L 311.67563670378206 169.58867736524735 L 316.51370796369946 166.0071119729855 L 320.9313022344503 162.45542240146926 L 324.9187176221517 158.94969421603844 L 328.4735189265755 155.50255798578576 L 331.59912194252854 152.123930744861 L 334.3034520995176 148.82166447061928 L 336.5977173044365 145.60209564919654 L 338.49531814492195 142.47050035233536 L 340.0109054650766 139.4314653377657 L 341.15958556957776 136.4891885739125 L 341.95626653602255 133.647723275408 L 342.41513481003057 130.9111788458028 L 342.5492489083478 128.2838906835761 L 342.37023619333695 125.77056905209895 L 341.8880789096244 123.37643541876082 L 341.11097666905744 121.10735298456558 L 340.0452740854238 118.96995661484027 L 338.69544411196387 116.97178604388262 L 337.0641196927096 115.12142501949802 L 335.1521685164048 113.42864790801985 L 332.95880790550194 111.90457410804879 L 330.48175915256655 110.56182931854914 L 327.71744291740777 109.41471115769832 L 324.6612196117523 108.47935470386102 L 321.30768101264425 107.77389108797297 L 317.6510016357376 107.31858915688781 L 313.6853606136326 107.13596629724361 L 309.4054468686133 107.25084961930634 L 304.807062088157 107.69036274950929 L 299.8878371647072 108.48380645096546 L 294.6480779950368 109.66239331352045 L 289.09175535354575 111.25878820269259 L 283.22765029302536 113.3063977752621 L 277.0706603338833 115.8383454352819 L 270.643261545667 118.88606460735701 L 263.9771063385651 122.4774460150951 L 257.11471519352386 126.63448761732752 L 250.11119171478435 131.37042370308234 L 243.035853933852 136.68635755930814 L 235.97363152725117 142.56749475615015 L 229.02603120712195 148.97917384411062 L 222.31142637796086 155.86301570692444 L 215.96439102586842 163.133651496141 L 210.13378423160992 170.6766202805586 L 204.97931622529597 178.34811660288761 L 200.66640587606472 185.97726932110766 L 197.35928581163617 193.37149761462075 L 195.2125281661371 200.32518143063157 L 194.36143764194048 206.63139936251474 L 194.9120532441977 212.09587946487136 L 196.9317572636959 216.55169505257538 L 200.4416373511121 219.87278568913155 L 205.41171677101474 221.98426633486082 L 211.75992051373692 222.86781637690785 L 219.3551944125681 222.56120204702643 L 228.02461528135194 221.15201994223912 L 237.5637442828906 218.76678718375882 L 247.74901765866866 215.5572623162529 L 258.35074168964775 211.68617069225093 L 269.1453003770794 207.31429949012426 L 279.9254591467001 202.59034698013255 L 290.50806529306305 197.64417229281503 L 300.7388959761121 192.58340751551515 L 310.4947935149202 187.4929046931229 L 319.6834994569266 182.4362437043029 L 328.24173902838936 177.45849366621326 L 336.13213351008704 172.58953067612856 L 343.339463702586 167.84739288346935 L 349.866709362479 163.24134080048765 L 355.7311774025703 158.77445065201135 L 360.96092604144013 154.44568676980572 L 365.59160378472336 150.25147527902664 L 369.66375474409546 146.18684284319193 L 373.2205944490126 142.24620067670236 L 376.3062298174257 138.42385445933223 L 378.9642794614381 134.7143123594763 L 381.23684234890385 131.11245111269193 L 383.16376096876365 127.61358716477673 L 384.7821272155674 124.21348802305045 L 386.1259835309027 120.90834895779841 L 387.2261772628457 117.69475225850329 L 388.1103319770579 114.56962024931772 L 388.8029051092109 111.53016892519372 L 389.32530661858743 108.5738660581959 L 389.6960580473214 105.69839563012738 L 389.9309755524975 102.90162920169576 L 390.04336405489255 100.18160411032841 L 390.0442126652949 97.536508029065 L 389.94238405145563 94.96466929274158 L 389.7447924489862 92.46455241642616 L 389.45656665424883 90.03475833475619 L 389.0811956224122 87.6740290408313 L 388.6206552826262 85.38125647649372 L 388.0755159240371 83.15549570992073 L 387.4450300458318 80.99598262662303 L 386.7272009415817 78.90215655628933 L 385.9188325380842 76.8736884637731 L 385.015561162602 74.91051555330122 L 384.0118699970634 73.01288337750339 L 382.90108701755537 71.1813968148513 L 381.6753672342687 69.41708158894434 L 380.3256600616353 67.72145835958494 L 378.8416626812811 66.09663182767537 L 377.2117603332448 64.54539777223229 L 375.42295460786056 63.07137148576814 L 373.46078104023616 61.67914169910631 L 371.30921766612107 60.37445478923914 L 368.9505867257121 59.16443483755336 L 366.3654524558809 58.05784593196864 L 363.53251896206046 57.06540394748146 L 360.42853359875375 56.20014582809176 L 357.0282032267826 55.47786501769491 L 353.30413329995815 54.91762197150737 L 349.2268031423663 54.54233835151456 L 344.76459522705255 54.37948216298969 L 339.8839020143 54.46184812990225 L 334.5493412441834 54.82843218422386 L 328.72411981294226 55.52538986792527 L 322.37059778689826 56.60705409634892 L 315.45111792459625 58.13696597146617 L 307.92918228248436 60.188840467170394 L 299.77107565832614 62.8473436425262 L 290.9480546443326 66.20849616711337 L 281.43923859315686 70.37943644797824 L 271.2353506673569 75.4771745062454 L 260.34345645085295 81.6258483357648 L 248.79282371750236 88.95186960402404 L 236.64196454946665 97.57624140161701 L 223.986799634933 107.60329537321792 L 210.9696797541695 119.10520642999677 L 197.78868671517782 132.10201034531093 L 184.70620014957245 146.53760556676758 L 172.05516848074188 162.2534846327584 L 160.24092402009657 178.96373993520058 L 149.73587653544004 196.23703201564854 L 141.06425270943362 213.4931364557068 L 134.77455763885854 230.0223835257454 L 131.39896465412903 245.03444441885182 L 131.40156469123224 257.7374012242945 L 135.12106834763296 267.43896141243965 L 142.71724596339175 273.65130225964424 L 154.13260395032745 276.1738456961166 L 169.0799316482227 275.1292554243321 L 187.06165765572973 270.9393190077432 L 207.4193630349397 264.2458377719382 " stroke="url(#lineGrad)" stroke-width="2" fill="none" opacity="0.8" filter="url(#glow)" />
    
    <!-- Central Title with "Void" effect -->
    <text x="50%" y="45%" dominant-baseline="middle" text-anchor="middle" font-family="Segoe UI, Helvetica, sans-serif" font-weight="900" font-size="60" fill="white" letter-spacing="2" filter="url(#glow)">Math2Code</text>
    
    <text x="50%" y="65%" dominant-baseline="middle" text-anchor="middle" font-family="Consolas, monospace" font-size="16" fill="#cbd5e1" letter-spacing="6" opacity="0.8">THE SOURCE CODE OF REALITY</text>
    
    <!-- Decorative Elements -->
    <circle cx="400" cy="135" r="120" stroke="white" stroke-width="0.5" fill="none" opacity="0.1" stroke-dasharray="10 5" />
    <circle cx="400" cy="135" r="140" stroke="#8b5cf6" stroke-width="0.5" fill="none" opacity="0.1" stroke-dasharray="20 10" />

    </svg>
    